<svg width="30" height="30" viewBox="0 0 30 30" fill="none" xmlns="http://www.w3.org/2000/svg">
<g id="307780 1">
<g id="Group">
<path id="Vector" d="M21.7307 1.37578C21.4679 1.39687 21.4679 1.39687 21.4679 1.51875C21.4654 2.05312 20.6873 2.29922 20.287 1.89375L20.1919 1.79531L20.0843 1.85156C19.9492 1.92187 19.6915 2.08359 19.6915 2.1C19.6915 2.10703 19.7165 2.15625 19.7465 2.21016C19.8116 2.32734 19.8216 2.56172 19.769 2.70469C19.7265 2.82187 19.5613 2.98828 19.4287 3.05156C19.2761 3.12656 19.0284 3.13594 18.8783 3.07266C18.7357 3.01406 18.7732 2.98359 18.573 3.32578C18.5005 3.45 18.4404 3.56719 18.4404 3.58828C18.4404 3.60938 18.4654 3.63516 18.498 3.64922C18.6055 3.69609 18.7181 3.80391 18.7832 3.92344C18.8733 4.08516 18.8783 4.31953 18.7932 4.48125C18.6906 4.68281 18.4179 4.85156 18.1977 4.85156C18.1452 4.85156 18.1402 4.86094 18.1402 4.96641C18.1402 5.02969 18.1352 5.09766 18.1251 5.11641C18.1151 5.13984 18.1402 5.15391 18.2152 5.16562C18.563 5.21719 18.7882 5.46797 18.7907 5.80312C18.7907 6.04688 18.6931 6.21094 18.4679 6.35156L18.4129 6.38672L18.5505 6.63984C18.7307 6.975 18.7206 6.96562 18.8382 6.90937C19.161 6.75937 19.5839 6.9 19.744 7.21406C19.8316 7.37812 19.8266 7.61016 19.734 7.77656L19.6664 7.90312L19.7215 7.94531C19.754 7.96875 19.8841 8.04844 20.0142 8.12109C20.2119 8.23359 20.2544 8.24766 20.2719 8.21719C20.3595 8.06953 20.6047 7.91953 20.7523 7.92422C20.8199 7.92656 20.8224 7.92891 20.7749 7.94062C20.7323 7.95234 20.7724 7.97109 20.9375 8.01094C21.0576 8.04141 21.2002 8.08125 21.2553 8.09766L21.3553 8.13047L21.2678 8.06016C21.2202 8.02031 21.2052 7.99922 21.2352 8.01328C21.3879 8.08594 21.543 8.34844 21.543 8.53125C21.543 8.61797 21.5455 8.61797 21.6581 8.63437C21.7231 8.64141 21.8633 8.64844 21.9709 8.64844C22.161 8.64844 22.1685 8.64609 22.1685 8.59453C22.1685 8.48203 22.2461 8.30391 22.3362 8.20547C22.4287 8.10234 22.6389 7.99219 22.7315 7.99453C22.759 7.99453 22.7365 8.00859 22.6814 8.025C22.6239 8.04141 22.5563 8.06719 22.5313 8.08125C22.4863 8.10703 22.4863 8.10938 22.5438 8.09766C22.5789 8.09062 22.6789 8.06953 22.769 8.05312C22.9191 8.02266 22.9267 8.01797 22.8691 7.99453C22.8141 7.97109 22.8216 7.97109 22.9191 7.98281C23.1493 8.00859 23.342 8.13516 23.4821 8.35312C23.5046 8.38594 23.5372 8.37656 23.7824 8.26172C24.1677 8.07891 24.1652 8.08125 24.1126 7.98281C23.905 7.57266 24.2503 7.07578 24.7407 7.07812C24.8082 7.07812 24.9233 7.10391 25.0084 7.13672C25.121 7.18125 25.161 7.18828 25.176 7.16484C25.186 7.15078 25.2636 7.03828 25.3437 6.91875L25.4938 6.70078L25.3587 6.57891C25.161 6.39844 25.1035 6.1875 25.1835 5.93906C25.2561 5.71172 25.4963 5.52891 25.7665 5.49375C25.8866 5.47969 25.8916 5.475 25.9066 5.39297C25.9267 5.28281 25.9267 4.76953 25.9066 4.63594L25.8916 4.53047L25.7215 4.51875C25.3487 4.49297 25.096 4.23047 25.096 3.86953C25.096 3.65859 25.2361 3.43828 25.4337 3.33516C25.4713 3.31406 25.4663 3.29766 25.3962 3.1875C25.3537 3.11953 25.2736 3.00234 25.2211 2.92734L25.121 2.79141L25.0034 2.84062C24.8407 2.90859 24.6256 2.90859 24.4529 2.83594C24.3103 2.77969 24.1327 2.61797 24.1552 2.56406C24.1627 2.54766 24.1552 2.53359 24.1402 2.53828C24.1026 2.54531 24.0501 2.38125 24.0476 2.25C24.0476 2.19141 24.0626 2.10234 24.0826 2.05078C24.1026 1.99922 24.1201 1.95 24.1201 1.94297C24.1201 1.93594 23.99 1.86797 23.8324 1.79062C23.5597 1.66172 23.5422 1.65469 23.5146 1.69687C23.4196 1.84922 23.1769 2.01797 23.0543 2.01328C23.0092 2.01328 23.0092 2.01094 23.0568 1.99219C23.1018 1.97344 23.0993 1.97109 23.0367 1.97109C22.9542 1.96875 22.5864 1.88672 22.4938 1.84922L22.4312 1.82344L22.4813 1.87969C22.5088 1.90781 22.4863 1.89609 22.4337 1.85156C22.3262 1.76016 22.2511 1.62187 22.2236 1.46953L22.2061 1.37109L22.0184 1.36875C21.9158 1.36641 21.7857 1.37109 21.7307 1.37578ZM22.6664 1.98281C22.7015 2.01094 22.6189 1.98516 22.5789 1.95469C22.5338 1.92187 22.5338 1.92187 22.5939 1.94766C22.6289 1.96172 22.6614 1.97812 22.6664 1.98281ZM22.7615 2.00625C22.754 2.01328 22.7315 2.01562 22.714 2.00859C22.694 2.00156 22.7015 1.99453 22.729 1.99453C22.7565 1.99219 22.7715 1.99922 22.7615 2.00625ZM22.9642 2.03203C22.9392 2.03672 22.8941 2.03672 22.8641 2.03203C22.8316 2.02734 22.8516 2.02266 22.9066 2.02266C22.9617 2.02031 22.9867 2.025 22.9642 2.03203ZM22.5063 4.03828C23.5171 4.48828 23.307 5.86641 22.196 6.07266C21.9008 6.12656 21.5055 6.01641 21.2778 5.81953C20.7924 5.39531 20.7699 4.68984 21.2277 4.26094C21.4804 4.02656 21.7282 3.93516 22.086 3.94687C22.2886 3.95391 22.3387 3.96328 22.5063 4.03828Z" fill="#A1A1A1"/>
<path id="Vector_2" d="M21.0172 2.01498C20.9546 2.04076 20.9196 2.05951 20.9371 2.05951C20.9772 2.06185 21.1423 1.99857 21.1423 1.98216C21.1423 1.97279 21.1398 1.9681 21.1373 1.97044C21.1323 1.97279 21.0797 1.99154 21.0172 2.01498Z" fill="#A1A1A1"/>
<path id="Vector_3" d="M24.2029 2.62701C24.2254 2.65982 24.2754 2.70669 24.313 2.73247C24.383 2.77935 24.4681 2.82857 24.4456 2.80747C24.2829 2.66216 24.1703 2.57779 24.2029 2.62701Z" fill="#A1A1A1"/>
<path id="Vector_4" d="M12.3702 2.75834C12.3277 2.94584 12.2751 3.08412 12.1976 3.2224C12.1025 3.39584 11.9649 3.56693 11.9374 3.55053C11.9248 3.54584 11.8898 3.56693 11.8573 3.59974C11.7772 3.68178 11.5871 3.81068 11.4269 3.89271C11.3569 3.93021 11.3068 3.96068 11.3193 3.96068C11.3719 3.96068 11.6371 3.80599 11.7847 3.68881L11.9474 3.55756L11.7872 3.70287C11.6071 3.86225 11.3243 4.00521 11.0591 4.07084C10.7439 4.15053 10.2985 4.1224 9.97572 4.00287C9.85312 3.95834 9.91817 3.96303 10.0683 4.0099C10.2835 4.07553 10.326 4.06381 10.1208 3.99349C9.85312 3.90443 9.84811 3.90443 9.86813 3.93256C9.88064 3.95131 9.87063 3.956 9.84561 3.94428C9.81809 3.9349 9.81308 3.92553 9.8331 3.91381C9.84811 3.90443 9.79807 3.86225 9.7105 3.81068C9.62793 3.76381 9.50032 3.6724 9.42526 3.60912C9.3502 3.54584 9.28264 3.49896 9.27514 3.50599C9.2351 3.5435 8.95987 3.06303 8.91984 2.88725C8.90733 2.831 8.89232 2.81224 8.86229 2.82162C8.83727 2.82631 8.73468 2.84974 8.6321 2.87084C8.22676 2.95756 7.73135 3.10756 7.15087 3.32318L7.08581 3.34896L7.13585 3.49662C7.21592 3.71928 7.21342 4.16693 7.13335 4.40599C6.9507 4.96146 6.54286 5.35521 5.96738 5.53568C5.81725 5.58256 5.74219 5.58959 5.44194 5.58959C5.17422 5.58959 5.05662 5.57787 4.94152 5.54506C4.73135 5.48412 4.42609 5.33412 4.29098 5.22162L4.17589 5.12787L4.03327 5.25209C3.8306 5.43256 3.49031 5.7724 3.28014 6.00912L3.09749 6.21303L3.28765 6.40053C3.66296 6.77318 3.8306 7.26537 3.75303 7.7599C3.63043 8.55443 2.94236 9.14271 2.08915 9.18021C1.93902 9.18724 1.77889 9.18021 1.68881 9.16381C1.44111 9.11693 1.45111 9.11225 1.39857 9.26928C1.27347 9.6349 1.05078 10.5912 1.05078 10.7669C1.05078 10.7927 1.0733 10.8044 1.12334 10.8044C1.16588 10.8044 1.28598 10.8302 1.39357 10.863C1.89398 11.0107 2.31183 11.3763 2.512 11.8357C2.60958 12.056 2.6346 12.2247 2.62209 12.5318C2.61208 12.7638 2.59707 12.8388 2.53452 12.9982C2.40191 13.331 2.18673 13.5958 1.88147 13.7974C1.71383 13.9099 1.44861 14.0247 1.29348 14.0505C1.24344 14.0599 1.20091 14.0716 1.20091 14.0787C1.20091 14.0904 1.32351 14.5451 1.37855 14.7372C1.40608 14.831 1.41358 14.838 1.47363 14.8263C1.50866 14.8169 1.63377 14.8052 1.75137 14.7982C2.23427 14.7654 2.71217 14.9294 3.08247 15.2529C3.78056 15.8622 3.81058 16.9122 3.15003 17.5872L3.00991 17.7302L3.14753 17.8943C3.34019 18.1216 3.78556 18.5857 4.01325 18.7966L4.20341 18.9701L4.34603 18.8388C4.42609 18.7662 4.54619 18.6747 4.61625 18.6349C4.75387 18.5529 5.10416 18.4216 5.17172 18.424C5.21175 18.424 5.21175 18.4287 5.16671 18.4474C5.13168 18.4638 5.14419 18.4638 5.21675 18.4544C5.2718 18.4451 5.40691 18.431 5.517 18.4193L5.71717 18.4005L5.46696 18.4076C5.32935 18.4122 5.24428 18.4052 5.2793 18.3958C5.31433 18.3865 5.44444 18.3794 5.56705 18.3771C6.37772 18.3701 7.08331 18.8787 7.28348 19.6122C7.35353 19.8724 7.34853 20.2357 7.27097 20.4747C7.24094 20.5779 7.20591 20.6787 7.1959 20.6997C7.17338 20.7466 7.20091 20.7583 7.6688 20.9177C7.97155 21.0208 8.60708 21.1919 8.79724 21.2201L8.89732 21.2365L8.94236 21.1005C9.02743 20.8474 9.15754 20.6482 9.37021 20.4466C9.55036 20.2755 9.86813 20.0622 9.89815 20.0927C9.90566 20.0974 9.86312 20.1279 9.80307 20.156C9.65795 20.2263 9.48781 20.3458 9.38272 20.4513C9.30016 20.531 9.30516 20.531 9.44027 20.4302C9.65545 20.2662 9.85061 20.156 10.0458 20.0833C10.2309 20.013 10.2384 19.9896 10.0583 20.0505C9.99824 20.0693 9.94569 20.081 9.93819 20.0763C9.93318 20.0693 10.0057 20.0435 10.1008 20.013C10.2159 19.9802 10.361 19.9591 10.5512 19.9521C10.894 19.9357 11.1192 19.9779 11.3994 20.1091C11.6271 20.2122 11.8948 20.4021 11.8698 20.4419C11.8598 20.456 11.8623 20.4607 11.8798 20.4513C11.9173 20.4302 12.1225 20.688 12.2226 20.8872C12.2701 20.981 12.3277 21.1287 12.3502 21.213L12.3902 21.3654L12.5929 21.3372C13.0082 21.281 13.9065 21.0841 13.9515 21.0396C13.959 21.0349 13.9515 21.0021 13.939 20.9693C13.884 20.8333 13.859 20.538 13.8865 20.3318C13.939 19.9427 14.1092 19.6146 14.3994 19.3451C14.7247 19.0427 15.1075 18.8904 15.5629 18.8787C15.7981 18.874 15.8056 18.874 15.6379 18.888L15.4503 18.9044L15.6054 18.9091C15.763 18.9138 16.0283 18.9677 16.306 19.0497C16.4861 19.1037 16.4987 19.0826 16.326 19.0193C16.261 18.9982 16.2159 18.9747 16.2234 18.9677C16.2284 18.9607 16.3185 18.9935 16.4186 19.038C16.6238 19.1318 16.8514 19.2958 16.9941 19.4552L17.0891 19.563L16.964 19.7669C16.8364 19.9755 16.6012 20.4349 16.6188 20.4466C16.6213 20.4513 16.6863 20.4841 16.7589 20.5193C16.9365 20.6083 17.1242 20.8029 17.2218 20.9927C17.2968 21.1427 17.3018 21.1662 17.3018 21.4216C17.3018 21.6771 17.2968 21.7005 17.2218 21.8505C17.0491 22.1904 16.7038 22.4201 16.326 22.4458L16.1384 22.4599V22.7107V22.9615L16.291 22.9779C16.8364 23.0294 17.2893 23.5685 17.2293 24.0958C17.1967 24.3935 16.9966 24.7029 16.7364 24.8622L16.5912 24.9513L16.7839 25.3146C16.8915 25.5138 17.0091 25.7201 17.0466 25.774L17.1142 25.8724L17.2743 25.8021C17.5996 25.6591 17.9349 25.6638 18.2626 25.8185C18.6605 26.0037 18.8881 26.381 18.8581 26.7982C18.8431 27.0138 18.7981 27.1451 18.6905 27.2951C18.6504 27.3537 18.6154 27.4052 18.6154 27.4099C18.6154 27.4427 19.5012 27.9607 19.5562 27.9607C19.5687 27.9607 19.5987 27.9326 19.6213 27.8951C19.7389 27.7099 20.0641 27.4943 20.2793 27.4568L20.3544 27.4451L20.2743 27.4732C20.2017 27.5013 20.2193 27.5037 20.462 27.5037C20.8123 27.506 21.0274 27.5693 21.2927 27.7568C21.3677 27.8107 21.4378 27.8529 21.4478 27.8482C21.4778 27.8412 21.5854 28.0333 21.6279 28.1693C21.6504 28.2396 21.668 28.3638 21.668 28.4435V28.5888L21.9007 28.6029C22.1809 28.6193 22.4461 28.6263 22.5837 28.6216L22.6863 28.6169L22.6988 28.4552C22.7088 28.3404 22.7339 28.2466 22.7889 28.1388C22.9065 27.9044 23.2143 27.6208 23.2993 27.6701C23.3143 27.6794 23.3193 27.6771 23.3093 27.6607C23.2743 27.6068 23.522 27.5505 23.8072 27.5505C24.065 27.5505 24.0925 27.5552 24.2526 27.6255C24.4578 27.7169 24.688 27.9162 24.7705 28.0708C24.8006 28.1318 24.8306 28.1857 24.8331 28.1904C24.8556 28.2185 25.7088 27.813 25.8464 27.7076L25.9015 27.6654L25.8464 27.5646C25.5812 27.0724 25.8139 26.4255 26.3469 26.1841C26.6846 26.0318 27.0399 26.0341 27.3652 26.1935L27.5228 26.2708L27.6605 26.0904C27.733 25.9919 27.8606 25.8044 27.9382 25.6779L28.0833 25.4458L28.0208 25.4083C27.8856 25.331 27.6905 25.1177 27.6154 24.9654C27.5479 24.8318 27.5354 24.7755 27.5278 24.581C27.5178 24.3935 27.5278 24.3279 27.5729 24.2013C27.7155 23.8005 28.1208 23.5146 28.5687 23.5029C28.7038 23.5005 28.7263 23.4935 28.7389 23.4513C28.7864 23.2732 28.7839 22.2162 28.7364 22.0099C28.7213 21.9419 28.7213 21.9419 28.4911 21.9326C28.1233 21.9138 27.8506 21.7826 27.6429 21.5271C27.4828 21.3279 27.4378 21.1919 27.4353 20.8943C27.4353 20.6529 27.4403 20.6271 27.5153 20.4794C27.6054 20.3013 27.7831 20.1091 27.9407 20.0224L28.0508 19.9638L27.9707 19.8302C27.8656 19.6521 27.5354 19.188 27.4903 19.1529C27.4603 19.1294 27.4353 19.1318 27.3702 19.1693C27.3227 19.1951 27.2176 19.2326 27.135 19.2513C26.7422 19.3497 26.3344 19.2443 26.0466 18.9771C25.9315 18.8669 25.8815 18.7943 25.9515 18.8341C25.969 18.8435 25.9715 18.8412 25.9615 18.8224C25.9515 18.8083 25.934 18.8013 25.9215 18.8083C25.8865 18.8271 25.7764 18.5857 25.7439 18.4169C25.7088 18.2341 25.7414 17.981 25.8214 17.8333L25.8715 17.7443L25.6338 17.613C25.4136 17.4912 24.9207 17.2638 24.9082 17.2779C24.9057 17.2826 24.8781 17.3271 24.8431 17.3787C24.763 17.5052 24.6079 17.6599 24.5003 17.7232C24.4027 17.7794 24.3602 17.7865 24.0274 17.8052C23.6922 17.8216 23.4745 17.7677 23.2067 17.6013C23.0391 17.4958 23.0266 17.4958 23.1317 17.6037L23.2318 17.7068L23.1117 17.6013C22.9115 17.4255 22.7689 17.1372 22.7689 16.9052V16.8044H22.4886C22.3335 16.8044 22.0633 16.8162 21.8881 16.8302L21.5679 16.8583V16.9943C21.5679 17.3763 21.3127 17.7419 20.9223 17.913C20.7797 17.9763 20.7197 17.988 20.512 17.9951C20.3143 18.0044 20.2418 17.9951 20.1067 17.9529C19.909 17.8919 19.6688 17.7326 19.5762 17.6013C19.5387 17.5497 19.4987 17.5076 19.4836 17.5076C19.4411 17.5076 19.2009 17.6388 18.9132 17.8169L18.6479 17.9833L18.733 18.138C19.0208 18.663 18.8056 19.2818 18.2451 19.5396C18.0575 19.6287 18.0525 19.6287 17.7547 19.6287C17.477 19.6287 17.4394 19.624 17.3043 19.563L17.1567 19.4997L17.3168 19.3802C17.5971 19.1716 18.1 18.7357 18.3002 18.5271L18.4953 18.3279L18.3577 18.1872C18.1851 18.0138 18.0099 17.6927 17.9524 17.449C17.9198 17.3154 17.9123 17.2029 17.9198 17.0177C17.9424 16.5771 18.1025 16.2349 18.4303 15.9279C18.768 15.6115 19.1233 15.4685 19.6288 15.4497C19.8865 15.4404 19.959 15.4474 20.1367 15.4919C20.2518 15.5201 20.3494 15.5388 20.3569 15.5318C20.4144 15.4779 20.7722 14.4091 20.8273 14.1326L20.8423 14.0505L20.6947 14.0083C20.462 13.9404 20.2468 13.8091 20.0291 13.6052C19.2409 12.8716 19.3736 11.6482 20.3018 11.0669C20.467 10.9638 20.7397 10.8537 20.9248 10.8162C20.9924 10.8044 20.9949 10.7997 20.9799 10.6919C20.9198 10.2865 20.7922 9.74506 20.6546 9.31615C20.5796 9.08412 20.3193 8.39037 20.3068 8.39037C20.3068 8.39037 20.2193 8.4185 20.1167 8.45131C19.889 8.52631 19.4236 8.55443 19.1934 8.5099C18.5178 8.37396 18.0149 7.93334 17.8273 7.31224C17.7622 7.10365 17.7622 6.70287 17.8248 6.48021C17.9048 6.19428 18.155 5.80053 18.3352 5.67396L18.4027 5.62474L18.0399 5.28959C17.8398 5.10678 17.557 4.86303 17.4069 4.74818L17.1392 4.54193L16.9766 4.68256C16.3335 5.23334 15.3052 5.25443 14.6421 4.72943C14.3469 4.49506 14.1267 4.1435 14.0466 3.77318C14.0066 3.58803 14.0066 3.46381 14.0441 3.09584C14.0491 3.04428 14.0316 3.03256 13.899 2.99506C13.5187 2.8849 12.5829 2.69506 12.4203 2.69506C12.4027 2.69506 12.3802 2.72318 12.3702 2.75834ZM9.69048 3.84115C9.74052 3.86928 9.78306 3.89974 9.78306 3.90443C9.78306 3.95131 9.3477 3.63256 9.30516 3.55521C9.28765 3.52709 9.3477 3.56693 9.43527 3.64428C9.52284 3.72396 9.63794 3.81068 9.69048 3.84115ZM11.522 8.98803C12.2376 9.09818 12.8456 9.38881 13.3435 9.8599C14.2643 10.7294 14.547 11.9951 14.0816 13.1365C13.5612 14.4044 12.2076 15.2037 10.7589 15.0935C8.6321 14.9341 7.23594 12.9513 7.909 11.0529C8.2768 10.0146 9.24261 9.21537 10.371 9.01381C10.4811 8.99506 10.5937 8.97396 10.6213 8.96928C10.7439 8.94349 11.3168 8.95521 11.522 8.98803ZM23.4419 17.8029C23.477 17.831 23.3944 17.8052 23.3544 17.7747C23.3093 17.7419 23.3093 17.7419 23.3694 17.7677C23.4044 17.7818 23.4369 17.7982 23.4419 17.8029ZM24.2826 17.824C24.2426 17.8427 24.1901 17.8568 24.17 17.8568C24.15 17.8568 24.1726 17.8404 24.2201 17.824C24.3352 17.7818 24.3802 17.7841 24.2826 17.824ZM23.6871 17.8732C23.6796 17.8802 23.6571 17.8826 23.6396 17.8755C23.6196 17.8685 23.6271 17.8615 23.6546 17.8615C23.6821 17.8591 23.6972 17.8662 23.6871 17.8732ZM24.1125 17.8732C24.105 17.8802 24.0825 17.8826 24.065 17.8755C24.0449 17.8685 24.0525 17.8615 24.08 17.8615C24.1075 17.8591 24.1225 17.8662 24.1125 17.8732ZM23.9399 17.899C23.9148 17.9037 23.8748 17.9037 23.8523 17.899C23.8273 17.8919 23.8473 17.8872 23.8948 17.8872C23.9424 17.8872 23.9624 17.8919 23.9399 17.899ZM15.9832 18.9068C15.9582 18.9115 15.9182 18.9115 15.8957 18.9068C15.8706 18.8997 15.8906 18.8951 15.9382 18.8951C15.9857 18.8951 16.0057 18.8997 15.9832 18.9068ZM16.1809 18.9513C16.1734 18.9583 16.1509 18.9607 16.1334 18.9537C16.1133 18.9466 16.1208 18.9396 16.1484 18.9396C16.1759 18.9372 16.1909 18.9443 16.1809 18.9513ZM22.5262 20.8052C22.4937 20.8099 22.4386 20.8099 22.4011 20.8052C22.361 20.8005 22.3886 20.7958 22.4561 20.7958C22.5262 20.7958 22.5562 20.8005 22.5262 20.8052ZM22.7188 20.8404C22.6538 20.8521 22.6663 20.8544 22.7689 20.8474C22.859 20.8427 22.954 20.8544 23.0441 20.8826C23.1192 20.906 23.1667 20.9247 23.1467 20.9271C23.1292 20.9294 23.2168 20.9763 23.3419 21.0349C23.467 21.0935 23.6021 21.1685 23.6421 21.199C23.7272 21.2669 23.7647 21.2763 23.7172 21.2154C23.6896 21.1826 23.6947 21.1849 23.7397 21.2201C23.7697 21.2458 23.7897 21.2693 23.7822 21.2763C23.7747 21.2833 23.8248 21.3443 23.8923 21.4099C24.4203 21.9326 24.5829 22.7037 24.3102 23.3787C24.0499 24.0185 23.4044 24.5083 22.7213 24.5787C22.5637 24.5951 22.5612 24.5974 22.6563 24.6091C22.7113 24.6185 22.6288 24.6232 22.4686 24.6255C22.276 24.6255 22.2059 24.6208 22.256 24.6068C22.311 24.5927 22.2885 24.5904 22.1809 24.5974C22.0883 24.6021 22.0558 24.5997 22.0933 24.588C22.1509 24.5716 22.1484 24.5693 22.0558 24.5552C22.0007 24.5458 21.9282 24.5341 21.8932 24.5271C21.8581 24.5224 21.8756 24.5318 21.9307 24.5505C22.0158 24.581 22.0183 24.5857 21.9557 24.5763C21.8631 24.5622 21.5854 24.4685 21.6004 24.4544C21.6054 24.4497 21.653 24.4615 21.7055 24.4802C21.7555 24.5013 21.8031 24.513 21.8081 24.5083C21.8156 24.5037 21.753 24.4755 21.6755 24.4474C21.5954 24.4193 21.4703 24.3583 21.3977 24.3138C21.3227 24.2669 21.2576 24.2365 21.2501 24.2412C21.2451 24.2482 21.2901 24.281 21.3527 24.3162C21.4703 24.3794 21.5128 24.4216 21.4128 24.3724C21.3102 24.3232 21.2151 24.2529 21.2276 24.2388C21.2476 24.2224 21.1675 24.1404 21.135 24.1404C21.12 24.1404 21.13 24.1638 21.1575 24.1919C21.2001 24.2412 21.1976 24.2412 21.135 24.1896C21.0975 24.1568 21.0725 24.1263 21.08 24.1216C21.1025 24.1005 21.0124 24.0232 20.9849 24.0396C20.9724 24.0466 20.9674 24.0443 20.9749 24.0302C20.9849 24.0162 20.9399 23.9435 20.8773 23.8685C20.8148 23.7935 20.7197 23.6458 20.6671 23.5427C20.1467 22.5162 20.7047 21.2927 21.8581 20.9318C21.9857 20.8919 22.1384 20.8568 22.1959 20.8568L22.306 20.8521L22.2059 20.838C22.1509 20.831 22.2635 20.824 22.4561 20.824C22.6613 20.824 22.7714 20.831 22.7188 20.8404ZM22.0608 20.8497C22.0533 20.8568 22.0308 20.8591 22.0133 20.8521C21.9932 20.8451 22.0007 20.838 22.0283 20.838C22.0558 20.8357 22.0708 20.8427 22.0608 20.8497ZM21.9607 20.8732C21.9532 20.8802 21.9307 20.8826 21.9132 20.8755C21.8932 20.8685 21.9007 20.8615 21.9282 20.8615C21.9557 20.8591 21.9707 20.8662 21.9607 20.8732ZM21.693 20.9529C21.673 20.9646 21.6454 20.9763 21.6304 20.9763C21.6179 20.9763 21.6229 20.9646 21.6429 20.9529C21.663 20.9412 21.693 20.9294 21.7055 20.9294C21.7205 20.9294 21.713 20.9412 21.693 20.9529ZM23.3193 20.9763C23.3669 21.0021 23.3969 21.0208 23.3819 21.0208C23.3694 21.0208 23.3168 21.0021 23.2693 20.9763C23.2218 20.9505 23.1942 20.9318 23.2067 20.9318C23.2218 20.9318 23.2718 20.9505 23.3193 20.9763ZM23.6496 21.1591C23.6671 21.1755 23.6196 21.1568 23.5495 21.1146C23.477 21.0747 23.4194 21.0349 23.4194 21.0302C23.4194 21.0138 23.6221 21.1263 23.6496 21.1591ZM21.2426 21.1732C21.2426 21.1779 21.2226 21.1966 21.2001 21.213C21.16 21.2435 21.1575 21.2412 21.1901 21.2037C21.2226 21.1662 21.2426 21.1544 21.2426 21.1732ZM21.1175 21.2646C21.1175 21.2693 21.07 21.3138 21.0124 21.363L20.9048 21.4568L21.0049 21.356C21.095 21.2646 21.1175 21.2458 21.1175 21.2646ZM23.9324 21.3747C23.9849 21.4263 24.0249 21.4685 24.0174 21.4685C24.0099 21.4685 23.9599 21.4263 23.9073 21.3747C23.8548 21.3232 23.8148 21.281 23.8223 21.281C23.8298 21.281 23.8798 21.3232 23.9324 21.3747ZM24.0725 21.5318C24.105 21.5693 24.1025 21.5716 24.065 21.5412C24.0399 21.5247 24.0199 21.506 24.0199 21.5013C24.0199 21.4826 24.0399 21.4943 24.0725 21.5318ZM24.5128 22.7857C24.5078 22.8279 24.5028 22.7997 24.5028 22.7224C24.5028 22.6451 24.5078 22.6099 24.5128 22.6451C24.5178 22.6802 24.5178 22.7435 24.5128 22.7857ZM20.8198 23.8521C20.8523 23.8896 20.8498 23.8919 20.8123 23.8615C20.7872 23.8451 20.7672 23.8263 20.7672 23.8216C20.7672 23.8029 20.7872 23.8146 20.8198 23.8521ZM20.9048 23.9529C20.9298 23.9787 20.9449 23.9997 20.9374 23.9997C20.9298 23.9997 20.9048 23.9787 20.8798 23.9529C20.8548 23.9271 20.8398 23.906 20.8473 23.906C20.8548 23.906 20.8798 23.9271 20.9048 23.9529ZM21.5554 24.4404C21.5479 24.4474 21.5278 24.4404 21.5103 24.424C21.4878 24.4005 21.4903 24.3982 21.5253 24.4122C21.5504 24.4193 21.5629 24.4333 21.5554 24.4404ZM22.9866 24.5763C22.9791 24.5833 22.9565 24.5857 22.939 24.5787C22.919 24.5716 22.9265 24.5646 22.954 24.5646C22.9816 24.5622 22.9966 24.5693 22.9866 24.5763ZM22.8765 24.6021C22.859 24.6068 22.8239 24.6068 22.8014 24.6021C22.7764 24.5951 22.7914 24.5904 22.8314 24.5904C22.874 24.5904 22.8915 24.5951 22.8765 24.6021ZM20.6621 27.438C20.6096 27.4427 20.5195 27.4427 20.462 27.438C20.4019 27.4333 20.4444 27.4287 20.5545 27.4287C20.6646 27.4287 20.7122 27.4333 20.6621 27.438ZM21.1075 27.5529C21.1525 27.5857 21.1525 27.5857 21.0925 27.5599C21.0149 27.5271 21.0024 27.5154 21.0324 27.5154C21.0474 27.5154 21.08 27.5318 21.1075 27.5529ZM21.3777 27.7474C21.5078 27.874 21.4353 27.8388 21.2927 27.7052C21.2176 27.6326 21.1901 27.5974 21.2301 27.6255C21.2726 27.6537 21.3377 27.7076 21.3777 27.7474Z" fill="#A1A1A1"/>
<path id="Vector_5" d="M7.76367 12.0352C7.76367 12.1383 7.76868 12.1781 7.77368 12.1219C7.77868 12.068 7.77868 11.9836 7.77368 11.9344C7.76868 11.8875 7.76367 11.932 7.76367 12.0352Z" fill="#A1A1A1"/>
<path id="Vector_6" d="M14.2695 12.0345C14.2695 12.1235 14.2745 12.1587 14.2795 12.1095C14.2845 12.0626 14.2845 11.9876 14.2795 11.9454C14.2745 11.9056 14.2695 11.9431 14.2695 12.0345Z" fill="#A1A1A1"/>
<path id="Vector_7" d="M22.8638 20.8756C22.8814 20.8827 22.9039 20.8803 22.9114 20.8733C22.9214 20.8663 22.9064 20.8592 22.8789 20.8616C22.8513 20.8616 22.8438 20.8686 22.8638 20.8756Z" fill="#A1A1A1"/>
<path id="Vector_8" d="M22.9644 20.8991C22.9819 20.9061 23.0045 20.9038 23.012 20.8967C23.022 20.8897 23.007 20.8827 22.9794 20.885C22.9519 20.885 22.9444 20.892 22.9644 20.8991Z" fill="#A1A1A1"/>
<path id="Vector_9" d="M22.4137 24.6022C22.4312 24.6092 22.4537 24.6069 22.4612 24.5999C22.4712 24.5928 22.4562 24.5858 22.4287 24.5881C22.4011 24.5881 22.3936 24.5952 22.4137 24.6022Z" fill="#A1A1A1"/>
<path id="Vector_10" d="M11.1717 3.99538C11.1091 4.0235 11.1066 4.02819 11.1592 4.01647C11.2292 4.00007 11.3093 3.96257 11.2718 3.96257C11.2592 3.96257 11.2142 3.97663 11.1717 3.99538Z" fill="#A1A1A1"/>
<path id="Vector_11" d="M10.8961 4.05449C10.8285 4.0709 10.8285 4.07324 10.8836 4.07324C10.9186 4.07324 10.9812 4.06387 11.0212 4.05449C11.0888 4.03809 11.0888 4.03574 11.0337 4.03574C10.9987 4.03574 10.9386 4.04512 10.8961 4.05449Z" fill="#A1A1A1"/>
<path id="Vector_12" d="M10.3413 4.0707C10.3639 4.07539 10.3989 4.07539 10.4164 4.0707C10.4314 4.06367 10.4139 4.05898 10.3714 4.05898C10.3313 4.05898 10.3163 4.06367 10.3413 4.0707Z" fill="#A1A1A1"/>
<path id="Vector_13" d="M10.5284 4.09414C10.5709 4.09883 10.646 4.09883 10.691 4.09414C10.7336 4.08945 10.6985 4.08477 10.6085 4.08477C10.5184 4.08477 10.4833 4.08945 10.5284 4.09414Z" fill="#A1A1A1"/>
<path id="Vector_14" d="M16.1557 5.02924C16.1482 5.03627 16.0156 5.05033 15.8579 5.0597L15.5752 5.07845L15.8004 5.0808C15.9255 5.08314 16.0806 5.06908 16.1507 5.05267C16.2207 5.03392 16.2533 5.01752 16.2232 5.01752C16.1957 5.01517 16.1657 5.0222 16.1557 5.02924Z" fill="#A1A1A1"/>
<path id="Vector_15" d="M5.0992 5.54751C5.11671 5.55454 5.13923 5.5522 5.14674 5.54517C5.15675 5.53814 5.14174 5.53111 5.11421 5.53345C5.08669 5.53345 5.07918 5.54048 5.0992 5.54751Z" fill="#A1A1A1"/>
<path id="Vector_16" d="M5.22424 5.5707C5.25426 5.57539 5.30431 5.57539 5.33683 5.5707C5.36686 5.56602 5.34184 5.56133 5.27928 5.56133C5.21673 5.56133 5.19171 5.56602 5.22424 5.5707Z" fill="#A1A1A1"/>
<path id="Vector_17" d="M19.5158 7.02155C19.5508 7.05905 19.5833 7.09421 19.5908 7.10124C19.5983 7.10827 19.6359 7.14811 19.6734 7.1903C19.7485 7.27936 19.761 7.27233 19.6984 7.17624C19.6384 7.08483 19.5608 7.00749 19.5033 6.97936C19.4607 6.95827 19.4632 6.9653 19.5158 7.02155Z" fill="#A1A1A1"/>
<path id="Vector_18" d="M22.9644 8.03189C22.9819 8.03892 23.0045 8.03657 23.012 8.02954C23.022 8.02251 23.007 8.01548 22.9794 8.01782C22.9519 8.01782 22.9444 8.02486 22.9644 8.03189Z" fill="#A1A1A1"/>
<path id="Vector_19" d="M20.4991 17.9691C20.5216 17.9738 20.5617 17.9738 20.5867 17.9691C20.6092 17.9621 20.5892 17.9574 20.5417 17.9574C20.4941 17.9574 20.4741 17.9621 20.4991 17.9691Z" fill="#A1A1A1"/>
<path id="Vector_20" d="M5.04939 18.485C5.06691 18.492 5.08943 18.4897 5.09693 18.4827C5.10694 18.4756 5.09193 18.4686 5.06441 18.4709C5.03688 18.4709 5.02938 18.478 5.04939 18.485Z" fill="#A1A1A1"/>
<path id="Vector_21" d="M26.082 18.9749C26.177 19.0733 26.3522 19.1764 26.4723 19.2045C26.5073 19.2139 26.4523 19.1788 26.3497 19.1272C26.2471 19.0756 26.1245 18.9983 26.0745 18.9561C25.9844 18.8788 25.9844 18.8788 26.082 18.9749Z" fill="#A1A1A1"/>
<path id="Vector_22" d="M10.4034 19.9848C10.4334 19.9895 10.4784 19.9895 10.5034 19.9848C10.526 19.9777 10.5009 19.973 10.4459 19.9754C10.3909 19.9754 10.3708 19.9801 10.4034 19.9848Z" fill="#A1A1A1"/>
<path id="Vector_23" d="M10.7291 19.9848C10.7591 19.9895 10.8092 19.9895 10.8417 19.9848C10.8717 19.9801 10.8467 19.9754 10.7842 19.9754C10.7216 19.9754 10.6966 19.9801 10.7291 19.9848Z" fill="#A1A1A1"/>
<path id="Vector_24" d="M10.253 20.0082C10.268 20.0129 10.298 20.0129 10.3155 20.0082C10.3305 20.0012 10.318 19.9965 10.283 19.9965C10.248 19.9965 10.2355 20.0012 10.253 20.0082Z" fill="#A1A1A1"/>
<path id="Vector_25" d="M10.9288 20.0082C10.9438 20.0129 10.9738 20.0129 10.9913 20.0082C11.0063 20.0012 10.9938 19.9965 10.9588 19.9965C10.9238 19.9965 10.9112 20.0012 10.9288 20.0082Z" fill="#A1A1A1"/>
<path id="Vector_26" d="M11.0966 20.0385C11.1241 20.0502 11.1642 20.0596 11.1842 20.0596C11.2067 20.0596 11.2042 20.0502 11.1717 20.0385C11.1442 20.0268 11.1041 20.0174 11.0841 20.0174C11.0616 20.0174 11.0641 20.0268 11.0966 20.0385Z" fill="#A1A1A1"/>
<path id="Vector_27" d="M11.4391 20.1697C11.5292 20.2165 11.6518 20.2915 11.7094 20.3361C11.7644 20.3806 11.8169 20.4134 11.822 20.4087C11.8495 20.383 11.3666 20.0853 11.2965 20.0853C11.284 20.0876 11.3466 20.1251 11.4391 20.1697Z" fill="#A1A1A1"/>
<path id="Vector_28" d="M18.2648 25.8633C18.3523 25.9078 18.4699 25.9852 18.5275 26.0344L18.6276 26.1211L18.53 26.0227C18.4449 25.9359 18.1822 25.7812 18.1246 25.7812C18.1121 25.7812 18.1747 25.8187 18.2648 25.8633Z" fill="#A1A1A1"/>
<path id="Vector_29" d="M23.5344 27.5836C23.4919 27.5906 23.6045 27.5977 23.7796 27.5977C23.9547 27.5977 24.0723 27.5906 24.0398 27.5812C23.9673 27.5625 23.6295 27.5625 23.5344 27.5836Z" fill="#A1A1A1"/>
</g>
</g>
</svg>
