<svg width="30" height="30" viewBox="0 0 30 30" fill="none" xmlns="http://www.w3.org/2000/svg">
<g id="car-wheel 1" clip-path="url(#clip0_731_293)">
<g id="Group">
<path id="Vector" d="M15.0001 0C6.72905 0 0 6.72894 0 15C0 23.2711 6.72905 30 15.0001 30C23.2711 30 30.0001 23.2711 30.0001 15C30.0001 6.72894 23.2709 0 15.0001 0ZM15.0001 25.6537C9.11614 25.6537 4.34633 20.884 4.34633 15C4.34633 9.11602 9.11614 4.34633 15.0001 4.34633C20.8839 4.34633 25.6538 9.11602 25.6538 15C25.6538 20.884 20.8837 25.6537 15.0001 25.6537Z" fill="#A1A1A1"/>
<path id="Vector_2" d="M15.0001 5.72559C9.88604 5.72559 5.72559 9.88605 5.72559 15C5.72559 20.114 9.88616 24.2745 15.0001 24.2745C20.1141 24.2745 24.2746 20.114 24.2746 15C24.2746 9.88605 20.114 5.72559 15.0001 5.72559ZM23.0869 14.4087H18.5868C18.4949 13.84 18.2703 13.3155 17.9462 12.8672L21.1231 9.69027C22.2384 10.9745 22.9564 12.6109 23.0869 14.4087ZM15.582 6.91247C17.3787 7.04059 19.0146 7.7559 20.2995 8.86794L17.1233 12.0442C16.675 11.7204 16.1506 11.4958 15.582 11.4039V6.91247ZM14.4181 6.91247V11.4038C13.8496 11.4957 13.3251 11.7202 12.8767 12.0442L9.70041 8.86806C10.9854 7.75602 12.6214 7.04059 14.4181 6.91247ZM8.87666 9.69039L12.0537 12.8673C11.7297 13.3155 11.5051 13.84 11.4132 14.4086H6.91318C7.04365 12.6109 7.76168 10.9746 8.87666 9.69039ZM6.91188 15.5725H11.4133C11.5051 16.1411 11.7298 16.6655 12.0538 17.1139L8.86806 20.2996C7.75401 19.0123 7.03811 17.3728 6.91188 15.5725ZM14.4181 23.0876C12.6166 22.9591 10.9769 22.2404 9.69027 21.1233L12.8767 17.9368C13.3251 18.2608 13.8496 18.4854 14.4181 18.5773V23.0876ZM14.4181 17.38V17.3885C14.167 17.3275 13.9312 17.2282 13.7165 17.0969L13.722 17.0914C13.3861 16.8865 13.104 16.6044 12.8991 16.2683L12.8937 16.2738C12.7624 16.059 12.6631 15.8234 12.6021 15.5722H12.6105C12.5651 15.3854 12.5384 15.1912 12.5384 14.9904C12.5384 14.7895 12.5652 14.5953 12.6105 14.4085H12.6021C12.6631 14.1574 12.7623 13.9218 12.8937 13.7071L12.8991 13.7125C13.104 13.3766 13.3862 13.0943 13.722 12.8896L13.7165 12.884C13.9312 12.7527 14.167 12.6534 14.4181 12.5924V12.6009C14.6051 12.5555 14.7992 12.5288 15.0001 12.5288C15.2011 12.5288 15.3952 12.5555 15.5821 12.6009V12.5924C15.8333 12.6535 16.0689 12.7526 16.2836 12.8839L16.278 12.8894C16.614 13.0942 16.8962 13.3765 17.101 13.7124L17.1065 13.7069C17.2379 13.9217 17.3371 14.1574 17.3982 14.4086H17.3898C17.4352 14.5954 17.4618 14.7896 17.4618 14.9905C17.4618 15.1913 17.4351 15.3855 17.3898 15.5724H17.3982C17.3371 15.8235 17.238 16.0593 17.1065 16.274L17.101 16.2686C16.8962 16.6045 16.6139 16.8867 16.278 17.0915L16.2836 17.0969C16.0689 17.2282 15.8333 17.3275 15.5821 17.3885V17.38C15.3952 17.4254 15.2011 17.4522 15.0001 17.4522C14.7992 17.4522 14.6051 17.4255 14.4181 17.38ZM15.582 23.0876V18.5773C16.1506 18.4854 16.675 18.2608 17.1233 17.9369L20.3096 21.1233C19.0232 22.2404 17.3835 22.9591 15.582 23.0876ZM21.132 20.2996L17.9464 17.114C18.2704 16.6657 18.4949 16.1412 18.587 15.5725H23.0883C22.9619 17.3728 22.2461 19.0123 21.132 20.2996Z" fill="#A1A1A1"/>
</g>
</g>
<defs>
<clipPath id="clip0_731_293">
<rect width="30" height="30" fill="white"/>
</clipPath>
</defs>
</svg>
